<?xml version="1.0" standalone="no"?>
<!DOCTYPE svg PUBLIC "-//W3C//DTD SVG 20010904//EN"
 "http://www.w3.org/TR/2001/REC-SVG-20010904/DTD/svg10.dtd">
<svg version="1.0" xmlns="http://www.w3.org/2000/svg"
 width="49.000000pt" height="44.000000pt" viewBox="0 0 49.000000 44.000000"
 preserveAspectRatio="xMidYMid meet">

<g transform="translate(0.000000,44.000000) scale(0.100000,-0.100000)"
fill="#000000" stroke="none">
<path d="M0 220 l0 -220 245 0 245 0 0 220 0 220 -245 0 -245 0 0 -220z m198
144 c20 -14 24 -14 44 0 30 21 50 20 76 -4 14 -14 22 -33 22 -55 0 -19 5 -37
10 -40 6 -3 10 -17 10 -31 0 -28 2 -29 40 -9 l30 16 0 -56 c0 -30 -2 -55 -5
-55 -4 0 -19 7 -35 15 -30 15 -30 15 -30 -13 0 -47 -14 -52 -137 -52 -135 0
-137 2 -129 113 2 40 5 78 6 85 0 6 0 24 -1 39 -1 17 7 33 21 45 27 22 49 23
78 2z"/>
<path d="M140 335 c-19 -23 -8 -50 20 -50 19 0 26 6 28 24 5 35 -26 53 -48 26z"/>
<path d="M250 329 c-13 -24 2 -49 31 -49 22 0 35 36 19 55 -17 21 -37 19 -50
-6z"/>
<path d="M130 180 l0 -71 98 3 97 3 0 65 0 65 -97 3 -98 3 0 -71z"/>
</g>
</svg>
